HIERARCHY
ROOT Hips
{
  OFFSET 0 0 0
  CHANNELS 6 Xposition Yposition Zposition Zrotation Yrotation Xrotation
  JOINT LeftThigh
  {
    OFFSET 8.409438 0 -5.917753
    CHANNELS 3 Zrotation Yrotation Xrotation
    JOINT LeftLeg
    {
      OFFSET 0 0 -42.358652
      CHANNELS 3 Zrotation Yrotation Xrotation
      JOINT LeftFoot
      {
        OFFSET 0 0 -39.357303
        CHANNELS 3 Zrotation Yrotation Xrotation
      }
    }
  }
  JOINT RightThigh
  {
    OFFSET -8.409438 0 -5.917753
    CHANNELS 3 Zrotation Yrotation Xrotation
    JOINT RightLeg
    {
      OFFSET 0 0 -42.358652
      CHANNELS 3 Zrotation Yrotation Xrotation
      JOINT RightFoot
      {
        OFFSET 0 0 -39.357303
        CHANNELS 3 Zrotation Yrotation Xrotation
      }
    }
  }
  JOINT SpineLow
  {
    OFFSET 0 0 4.719101
    CHANNELS 3 Zrotation Yrotation Xrotation
    JOINT SpineMid
    {
      OFFSET 0 0 12.899191
      CHANNELS 3 Zrotation Yrotation Xrotation
      JOINT Chest
      {
        OFFSET 0 0 12.899191
        CHANNELS 3 Zrotation Yrotation Xrotation
        JOINT LeftShoulder
        {
          OFFSET 7.550562 1.41573 9.438202
          CHANNELS 3 Zrotation Yrotation Xrotation
          JOINT LeftArm
          {
            OFFSET 9.155056 0 4.247191
            CHANNELS 3 Zrotation Yrotation Xrotation
            JOINT LeftForearm
            {
              OFFSET 0 0 25.771955
              CHANNELS 3 Zrotation Yrotation Xrotation
              JOINT LeftHand
              {
                OFFSET 0 0 25.197169
                CHANNELS 3 Zrotation Yrotation Xrotation
              }
            }
          }
        }
        JOINT RightShoulder
        {
          OFFSET -7.550562 1.41573 9.438202
          CHANNELS 3 Zrotation Yrotation Xrotation
          JOINT RightArm
          {
            OFFSET -9.155056 0 4.247191
            CHANNELS 3 Zrotation Yrotation Xrotation
            JOINT RightForearm
            {
              OFFSET 0 0 -25.771955
              CHANNELS 3 Zrotation Yrotation Xrotation
              JOINT RightHand
              {
                OFFSET 0 0 -25.197169
                CHANNELS 3 Zrotation Yrotation Xrotation
              }
            }
          }
        }
        JOINT Neck
        {
          OFFSET 0 0 15.101124
          CHANNELS 3 Zrotation Yrotation Xrotation
          JOINT Head
          {
            OFFSET 0 0 11.325843
            CHANNELS 3 Zrotation Yrotation Xrotation
            End Site
            {
              OFFSET 0 0 14.157303
            }
          }
        }
      }
    }
  }
}
MOTION
Frames: 17
Frame Time: 0.0
0.0  89.887642  0.0  3.540097  -46.959526  -99.092847  28.886416  -14.515209  4.390797  -1.224734  3.246577  25.788322  1.377765  -0.547922  2.278095  16.093408  4.728925  -10.86431  -4.818679  7.303959  11.688263  5.544092  0.485442  -1.07226  -1.004883  0.549788  0.480077  -2.736153  1.522373  1.289347  -2.736153  1.522373  1.289347  -22.415218  -0.616891  5.338131  -21.441894  63.225495  49.705816  -29.193307  -29.448785  107.96933  105.994621  4.905686  -24.246726  -24.142618  -3.056049  29.746209  53.00555  15.935579  42.702446  7.002794  -8.691061  -109.694983  74.456441  9.721371  -21.572371  13.810845  -0.036135  3.173251  10.358653  0.044659  2.382198  
0.0  89.887642  0.0  3.532334  -46.796677  -99.135978  28.464595  -14.299249  4.569074  -0.805411  2.819478  25.632731  1.334275  -0.598707  2.314414  15.91045  4.796131  -10.820535  -4.666872  7.19672  11.722222  5.481978  0.453498  -1.046664  -1.006819  0.575837  0.478768  -2.741004  1.593541  1.28466  -2.741004  1.593541  1.28466  -22.286749  -0.583936  5.616721  -21.575542  63.01361  49.650549  -29.162418  -29.431933  107.915487  105.967828  4.888585  -24.191582  -24.070347  -2.978068  29.934402  53.070646  15.975481  42.639451  6.978834  -8.702323  -109.689849  74.297593  9.742355  -21.645255  13.728135  -0.153485  3.240228  10.297253  -0.042333  2.435075  
0.0  89.887642  0.0  3.592607  -46.884769  -99.26152  28.447586  -14.169449  4.793125  -0.418605  2.468391  25.4883  1.260421  -0.624985  2.28563  16.122325  4.887684  -10.662632  -4.268002  7.02829  11.804541  5.190556  0.42472  -1.057613  -0.978033  0.595821  0.480646  -2.661899  1.647677  1.289699  -2.661899  1.647677  1.289699  -21.886958  -0.481529  5.875821  -21.784193  62.891004  49.619178  -29.115076  -29.497961  107.98435  105.983132  4.886841  -24.184407  -23.861103  -2.858878  30.027144  53.030268  16.003413  42.504241  6.821827  -9.075282  -110.02994  74.539728  9.311287  -21.89756  13.756034  -0.2231  3.337852  10.318597  -0.092231  2.509918  
0.0  89.887642  0.0  3.53963  -46.740581  -99.265194  28.326319  -14.114934  4.966871  -0.3179  2.235371  25.199693  1.236487  -0.670398  2.305872  15.995238  4.932684  -10.610015  -4.305663  6.931958  11.812443  5.135457  0.414837  -1.055835  -0.967468  0.611785  0.483494  -2.632651  1.691211  1.297126  -2.632651  1.691211  1.297126  -21.77336  -0.490371  6.058596  -21.949542  62.797924  49.521897  -29.103715  -29.544249  107.944426  105.955981  4.847729  -24.160993  -23.812576  -2.823505  30.164196  53.153356  16.078043  42.457801  6.781641  -9.020002  -110.019275  74.662899  9.311021  -21.963522  13.657145  -0.27797  3.395434  10.244758  -0.132661  2.554297  
0.0  89.887642  0.0  3.435418  -46.637441  -99.121261  28.355416  -14.136696  5.013978  -0.199462  2.077594  24.969229  1.151208  -0.654893  2.243413  15.992063  4.980205  -10.609673  -4.240905  6.839686  11.848122  4.863302  0.386688  -1.089457  -0.957965  0.611053  0.482841  -2.606703  1.689003  1.295614  -2.606703  1.689003  1.295613  -21.417647  -0.453686  6.143222  -22.209381  62.777431  49.452765  -29.034931  -29.632536  107.949996  105.96471  4.792037  -24.185357  -23.64764  -2.790134  30.121569  53.160593  16.095606  42.310733  6.617228  -9.258987  -110.261964  74.999689  9.043814  -22.161783  13.657153  -0.272206  3.421203  10.244751  -0.127759  2.573507  
0.0  89.887642  0.0  3.347246  -46.423334  -99.051979  28.307141  -14.210207  5.122963  -0.28562  2.018629  24.623405  1.129175  -0.67695  2.247037  15.714285  4.98103  -10.565393  -4.382032  6.823484  11.796782  4.853552  0.369345  -1.083972  -0.958184  0.611212  0.496583  -2.606944  1.689979  1.333164  -2.606944  1.689979  1.333163  -21.270128  -0.455561  6.127793  -22.337566  62.771047  49.40126  -29.021139  -29.681811  107.879115  105.958273  4.714491  -24.11214  -23.548156  -2.790047  30.138302  53.349934  16.211037  42.229875  6.555019  -9.251167  -110.2459  75.230266  8.923091  -22.265821  13.577466  -0.249884  3.411097  10.184855  -0.111678  2.565375  
0.0  89.887642  0.0  3.175389  -46.098425  -98.83836  28.197944  -14.305941  5.139186  -0.20669  2.02012  24.389243  0.974793  -0.703789  2.091801  15.25493  4.935557  -10.593118  -4.650557  6.846456  11.643535  4.888917  0.367706  -1.046  -0.988098  0.595094  0.503468  -2.688855  1.646809  1.351859  -2.688854  1.646809  1.351859  -20.858915  -0.37561  6.071132  -22.670411  62.788527  49.240399  -28.969016  -29.700975  107.966779  106.00271  4.708187  -24.007626  -23.295173  -2.772523  30.046129  53.286694  16.279475  41.943048  6.24437  -9.77729  -110.689472  75.769866  8.104617  -22.733856  13.607182  -0.183674  3.392092  10.206771  -0.062247  2.549657  
0.0  89.887642  0.0  3.082815  -45.741644  -98.746508  28.072252  -14.398384  5.245959  -0.321024  2.02787  24.007862  0.942867  -0.741538  2.079415  14.836387  4.953069  -10.568661  -4.716254  6.808996  11.592016  4.877886  0.357721  -1.035531  -1.001657  0.588336  0.518952  -2.725666  1.62925  1.394116  -2.725667  1.62925  1.394117  -20.723595  -0.331138  6.001097  -22.850451  62.843321  49.096458  -28.971587  -29.740506  107.909844  106.007757  4.60422  -23.940327  -23.219437  -2.813696  29.997722  53.480934  16.458337  41.833111  6.219397  -9.841627  -110.644845  75.924683  7.893555  -22.89044  13.519139  -0.13302  3.355308  10.140444  -0.025536  2.520887  
0.0  89.887642  0.0  2.890323  -45.196053  -98.447836  27.824751  -14.540702  5.260866  -0.295239  2.144608  23.649339  0.781898  -0.806728  1.940662  13.830184  4.854716  -10.751797  -4.516053  6.810079  11.493968  4.978074  0.362869  -0.98022  -1.070762  0.558577  0.513205  -2.915306  1.549115  1.377978  -2.915305  1.549115  1.377978  -20.248579  -0.162972  5.931091  -23.196781  62.911871  48.954819  -28.970606  -29.804337  107.991487  106.085409  4.309895  -24.118046  -22.909664  -2.787517  29.843229  53.39065  16.613928  41.500719  6.016377  -10.446422  -111.034127  76.379719  7.073198  -23.348915  13.577411  -0.025667  3.33331  10.183559  0.054859  2.502018  
0.0  89.887642  0.0  2.810535  -44.706512  -98.322554  27.653011  -14.604636  5.31632  -0.383991  2.150007  23.274054  0.720208  -0.859765  1.92845  13.371874  4.915384  -10.704613  -4.508315  6.740354  11.396877  4.956539  0.350733  -0.979037  -1.081169  0.548858  0.524129  -2.943691  1.523254  1.408019  -2.943691  1.523254  1.408019  -20.20229  -0.061978  5.854784  -23.401356  63.026557  48.813647  -28.963402  -29.844065  107.916285  106.093971  4.192271  -24.053424  -22.936902  -2.84348  29.752055  53.594063  16.846808  41.326315  6.009692  -10.556227  -110.962753  76.38166  6.843584  -23.462638  13.414994  0.022221  3.274149  10.06147  0.08861  2.456528  
0.0  89.887642  0.0  2.645344  -44.119869  -98.046799  27.452849  -14.722878  5.287142  -0.384689  2.232143  22.933532  0.594064  -0.900067  1.820583  12.529687  4.868812  -10.862171  -4.277075  6.702988  11.354804  5.006577  0.358914  -0.953824  -1.111236  0.524959  0.524493  -3.026354  1.458595  1.409392  -3.026354  1.458595  1.409392  -19.880905  0.139322  5.815339  -23.842921  63.098298  48.626479  -28.93073  -29.882464  107.898438  106.110619  4.134707  -23.962361  -22.909214  -2.897179  29.566107  53.56345  17.033041  40.937523  5.927803  -10.978693  -111.112341  76.632414  6.217836  -23.696123  13.321859  0.093801  3.210733  9.991228  0.140442  2.407362  
0.0  89.887642  0.0  2.553928  -43.572597  -97.939076  27.293801  -14.795944  5.31239  -0.463452  2.214362  22.611561  0.521225  -0.963193  1.801966  12.205615  4.967187  -10.805126  -4.429523  6.630368  11.291555  4.983929  0.349967  -0.952618  -1.116022  0.515602  0.548071  -3.039107  1.434209  1.474151  -3.039107  1.434209  1.474151  -19.847838  0.268916  5.728662  -24.104934  63.239496  48.446954  -28.883892  -29.888818  107.785103  106.132253  4.053029  -23.859975  -22.960143  -3.011318  29.447632  53.799057  17.296122  40.675306  5.866322  -11.067914  -110.999469  76.527719  6.070506  -23.620484  13.084897  0.115759  3.103483  9.813383  0.153372  2.326398  
0.0  89.887642  0.0  2.389717  -42.970907  -97.677977  27.099975  -14.924134  5.207576  -0.498489  2.273686  22.309361  0.41422  -0.991768  1.728788  11.428275  4.981882  -10.951778  -4.23466  6.540818  11.281441  4.997369  0.352182  -0.931569  -1.133773  0.489244  0.548887  -3.08817  1.362614  1.477207  -3.08817  1.362614  1.477207  -19.476718  0.557658  5.728474  -24.591263  63.320911  48.310854  -28.812547  -29.915712  107.654847  106.167483  4.000673  -23.766036  -22.937745  -3.054431  29.283025  53.716845  17.48961  40.119284  5.799438  -11.135164  -110.87685  76.558607  5.683701  -23.652554  12.923939  0.173158  3.033688  9.692373  0.194147  2.272808  
0.0  89.887642  0.0  2.277167  -42.346531  -97.554094  26.924786  -15.032441  5.144007  -0.577834  2.290343  22.073034  0.32385  -1.058699  1.712038  11.039646  5.096829  -10.861384  -4.420272  6.454999  11.213747  4.974279  0.354484  -0.945762  -1.131465  0.476497  0.559041  -3.081924  1.328201  1.505592  -3.081924  1.328201  1.505592  -19.458363  0.779895  5.735027  -24.82521  63.517545  48.232617  -28.722063  -29.931363  107.45779  106.203847  3.977909  -23.655003  -23.043372  -3.142944  29.255687  53.973136  17.786632  39.755316  5.613945  -11.095672  -110.706353  76.483576  5.546672  -23.555817  12.580239  0.168071  2.960628  9.434623  0.187111  2.218124  
0.0  89.887642  0.0  2.107629  -41.696987  -97.282001  26.701282  -15.187378  4.943274  -0.673396  2.374187  21.821414  0.271451  -1.047426  1.691073  10.254203  5.095391  -10.977865  -4.527831  6.445165  11.114795  5.113878  0.366364  -0.897167  -1.151354  0.450753  0.542289  -3.137169  1.257511  1.460612  -3.137169  1.257511  1.460612  -19.0243  1.144625  5.838868  -25.274361  63.666084  48.171732  -28.615505  -29.942596  107.263875  106.256855  3.978038  -23.533127  -22.906172  -3.162593  29.201924  53.558333  17.987216  38.843418  5.611238  -10.801249  -110.305115  76.570997  5.220945  -23.630603  12.421344  0.208336  2.943177  9.315252  0.216198  2.204225  
0.0  89.887642  0.0  1.993962  -41.002854  -97.141442  26.494473  -15.293134  4.822731  -0.798016  2.425874  21.629567  0.195664  -1.1054  1.686008  9.811114  5.198266  -10.885946  -4.717324  6.386547  11.052911  5.094152  0.375389  -0.893345  -1.145064  0.449742  0.534704  -3.120142  1.254254  1.44005  -3.120141  1.254254  1.44005  -18.983757  1.357146  5.975791  -25.480524  63.95747  48.155716  -28.508416  -29.958494  107.000585  106.311609  3.955939  -23.351462  -23.067336  -3.327975  29.227935  53.839514  18.31584  38.487689  5.296365  -10.618476  -110.081915  76.599836  5.125105  -23.704825  12.00593  0.144552  2.907185  9.003998  0.165619  2.178544  
0.0  89.887642  0.0  1.84856  -40.291311  -96.874841  26.20623  -15.443945  4.55533  -0.875445  2.549167  21.477092  0.178099  -1.059659  1.691886  9.015154  5.24776  -11.011458  -4.750776  6.349796  10.992203  5.247844  0.397955  -0.830987  -1.124977  0.449282  0.51131  -3.065693  1.251481  1.376523  -3.065693  1.251481  1.376522  -18.768865  1.597906  6.171742  -25.867267  64.243962  48.167651  -28.391217  -29.978055  106.750734  106.383065  3.955872  -23.141974  -23.290413  -3.493661  29.18036  53.520499  18.530095  37.638785  5.141767  -10.292088  -109.778407  76.806362  4.752415  -23.971447  11.606081  0.077162  2.879143  8.704426  0.112611  2.158815  
